<?xml version="1.0" standalone="no"?>
<!DOCTYPE svg PUBLIC "-//W3C//DTD SVG 20010904//EN"
 "http://www.w3.org/TR/2001/REC-SVG-20010904/DTD/svg10.dtd">
<svg version="1.0" xmlns="http://www.w3.org/2000/svg"
 width="700.000000pt" height="700.000000pt" viewBox="0 0 700.000000 700.000000"
 preserveAspectRatio="xMidYMid meet">
<metadata>
Created by potrace 1.14, written by Peter Selinger 2001-2017
</metadata>
<g transform="translate(0.000000,700.000000) scale(0.100000,-0.100000)"
fill="#000000" stroke="none">
<path d="M3269 6996 c-2 -2 -35 -6 -74 -10 -99 -8 -176 -17 -205 -22 -14 -2
-43 -7 -65 -10 -33 -5 -169 -33 -285 -60 -14 -3 -32 -7 -40 -9 -8 -2 -16 -4
-17 -5 -2 -2 -6 -3 -10 -4 -61 -14 -113 -32 -113 -38 0 -5 -4 -7 -9 -4 -5 3
-39 -5 -77 -19 -38 -13 -89 -31 -114 -40 -25 -8 -54 -20 -65 -25 -11 -5 -54
-23 -95 -40 -128 -54 -185 -83 -365 -185 -92 -52 -265 -167 -265 -176 0 -5 -4
-8 -8 -7 -8 3 -19 -5 -135 -95 -95 -74 -98 -77 -91 -89 4 -6 3 -8 -4 -4 -12 7
-118 -81 -114 -95 1 -5 -2 -8 -7 -7 -13 4 -111 -99 -103 -108 4 -4 2 -4 -4 -1
-10 6 -52 -34 -137 -134 -21 -24 -48 -55 -61 -69 -13 -14 -36 -43 -52 -65 -16
-23 -35 -47 -42 -55 -11 -13 -40 -53 -107 -147 -8 -13 -16 -26 -17 -30 -1 -5
-6 -13 -12 -20 -24 -27 -52 -69 -63 -93 -4 -8 -16 -31 -28 -50 -38 -61 -138
-247 -140 -260 0 -3 -17 -40 -38 -83 -20 -44 -37 -82 -37 -86 0 -4 -8 -25 -19
-47 -21 -43 -103 -284 -121 -354 -12 -43 -15 -56 -25 -101 -2 -11 -7 -29 -10
-39 -3 -10 -8 -29 -10 -42 -3 -13 -11 -57 -20 -98 -13 -69 -19 -102 -30 -170
-2 -14 -7 -54 -11 -90 -3 -36 -8 -78 -10 -95 -2 -16 -7 -126 -10 -244 -6 -182
-5 -213 7 -206 11 6 12 5 2 -6 -15 -16 -17 -43 -3 -34 6 3 10 1 10 -4 0 -6 -5
-11 -11 -11 -8 0 -7 -6 2 -17 9 -11 10 -14 2 -9 -8 4 -11 2 -8 -6 2 -7 6 -44
10 -83 31 -377 120 -737 266 -1078 176 -411 417 -766 734 -1082 168 -168 221
-216 229 -207 3 3 6 1 6 -5 0 -9 137 -123 196 -163 151 -103 180 -122 231
-151 15 -9 57 -33 93 -53 36 -21 69 -38 74 -39 5 -1 18 -10 28 -20 11 -10 26
-16 34 -13 8 3 14 1 14 -4 0 -6 5 -10 11 -10 6 0 23 -9 37 -19 15 -10 32 -20
37 -21 6 -2 37 -15 71 -30 126 -57 387 -150 491 -175 10 -3 54 -14 98 -25 71
-18 223 -48 282 -55 12 -2 34 -6 50 -9 15 -3 55 -8 88 -11 33 -4 76 -9 95 -11
63 -9 502 -11 595 -3 510 46 1006 194 1410 421 136 77 161 92 280 172 574 387
1022 941 1281 1584 30 74 52 138 49 142 -3 5 -1 10 4 12 16 5 120 377 135 483
3 17 7 41 10 55 3 13 8 42 11 65 4 22 8 54 11 70 4 30 11 87 20 175 8 82 11
484 3 575 -11 140 -28 278 -45 359 -2 11 -7 37 -10 56 -3 19 -15 73 -26 120
-24 102 -24 101 -31 120 -5 15 -17 65 -18 75 0 3 -17 56 -39 119 -112 324
-241 585 -421 851 -140 207 -240 327 -429 515 -139 139 -207 200 -325 289 -44
33 -85 65 -91 70 -74 62 -315 207 -464 281 -58 28 -116 57 -130 65 -75 40
-348 139 -520 189 -95 27 -363 83 -435 91 -5 0 -37 4 -70 8 -33 5 -80 10 -105
13 -56 6 -556 15 -561 10z m-1064 -1025 c3 -5 2 -12 -3 -15 -5 -3 -9 1 -9 9 0
17 3 19 12 6z m3325 -475 c0 -2 -8 -10 -17 -17 -16 -13 -17 -12 -4 4 13 16 21
21 21 13z m511 -3643 c13 -16 12 -17 -3 -4 -10 7 -18 15 -18 17 0 8 8 3 21
-13z m-4171 -923 c0 -5 -2 -10 -4 -10 -3 0 -8 5 -11 10 -3 6 -1 10 4 10 6 0
11 -4 11 -10z"/>
</g>
</svg>
